# xmcd
#
# Track frame offsets:
#	183
#	17595
#	35323
#	51335
#
# Disc length: 995 seconds
# Revision: 0
# Processed by: cddbd v1.5.2PL0 Copyright (c) Steve Scherf et al.
# Submitted via: dBpowerAMP V12.0
#
DISCID=2803e104
DTITLE=Pat Benatar - Somebody's Baby ~ CD Single [dBP-LITE-1-FLAC@]
DYEAR=1993
DGENRE=Pop
TTITLE0=Somebody's Baby (Radio Edit)
TTITLE1=Somebody's Baby (A/C Mix)
TTITLE2=Temptation
TTITLE3=Promises In The Dark (Live)
EXTD=
EXTT0=
EXTT1=
EXTT2=
EXTT3=
PLAYORDER=
